# xmcd
#
# Track frame offsets:
#	150
#	34103
#	51830
#	69868
#	90183
#	102541
#	119012
#	134613
#	148259
#	161858
#	173086
#	188428
#	205801
#	237763
#	251831
#	263358
#
# Disc length: 3657 seconds
#
# Revision: 1
# Processed by: cddbd v1.5.2PL0 Copyright (c) Steve Scherf et al.
# Submitted via: audiograbber 1.82.02
#
DISCID=e00e4710
DTITLE=Joe Bryl and Eric Williams - Rebirth
DYEAR=2008
DGENRE=Soul
TTITLE0=Joe Chambers - Blow Up
TTITLE1=John Baker - Get Happy
TTITLE2=Bronx River Parkway - Nara Se Va
TTITLE3=Seelow and Mayer Foundation - The Swinger From Rio
TTITLE4=The Birds Of Paradise - Bossa Blue
TTITLE5=Illies - Hier Stand Die Sonne Hoch
TTITLE6=Armando Trovaioli - Sette Uomini D'oro
TTITLE7=El Kinto - Estoy Sin Ti
TTITLE8=Julien Covey - Sweet Bacon
TTITLE9=The Shardells - Black Crack
TTITLE10=George Soule - Get Involved
TTITLE11=Fuka Vincente - Tempura Soul
TTITLE12=Jazz Liberatorz - Clin D'oeil
TTITLE13=Bainc Didonc - Cheveux Dans le Vent
TTITLE14=Stella - L'idole Des Jaunes
TTITLE15=Curtis Knight - Hornet's Nest
EXTD=
EXTT0=
EXTT1=
EXTT2=
EXTT3=
EXTT4=
EXTT5=
EXTT6=
EXTT7=
EXTT8=
EXTT9=
EXTT10=
EXTT11=
EXTT12=
EXTT13=
EXTT14=
EXTT15=
PLAYORDER=
